# xmcd
#
# Track frame offsets: 
#        200
#        1050
#        1930
#        2845
#        3817
#        4792
#        5805
#        6822
#        7592
#        8370
#        9135
#        9900
#        10670
#        11442
#        13950
#        16225
#        18587
#        20870
#        35462
#        38692
#        41052
#        43437
#        46380
#        63425
#        66345
#        68992
#        72152
#        89740
#        92660
#        95550
#        98462
#        114192
#        117430
#        121887
#        126112
#        129085
#        131942
#        150975
#        153025
#        155937
#        158612
#        160400
#        178387
#        179250
#        180125
#        181000
#        182997
#        184925
#        186775
#        202840
#        204712
#        207862
#        209977
#        212087
#        214330
#        217575
#        219837
#        222727
#        226575
#        227425
#        228307
#        229162
#        230027
#
# Disc length: 3077 seconds
#
# Revision: 0
# Processed by: cddbd v1.5.2PL0 Copyright (c) Steve Scherf et al.
# Submitted via: ExactAudioCopy v0.95a5
#
DISCID=2e0c033f
DTITLE=Jack Bruce - Blues Bass
DYEAR=2002
DGENRE=Instrumental
TTITLE0=Dur-Pentatonik
TTITLE1=Moll-Pentatonik
TTITLE2=Moll-Bluesskala
TTITLE3=Bluesskala
TTITLE4=Mixolydische Skala
TTITLE5=Akkordtöne
TTITLE6=Chromatische Durchgangstöne
TTITLE7=Ternäre Rhythmik (Swing)
TTITLE8=Binäre Rhythmik (Gerade Achtel)
TTITLE9=Achtel Bassline (gleich lang/laut)
TTITLE10=Achtel Bassline (kurz/gleich laut)
TTITLE11=Achtel Bassline (1-2-3-4 betont)
TTITLE12=Achtel Bassline (u-u-u-u betont)
TTITLE13=Achtel Bassline (Kenny Williams, 1)
TTITLE14=Achtel Bassline (Kenny Williams, 2)
TTITLE15=Achtel Bassline (Charles Calmese)
TTITLE16=Achtel Bassline (George Washington)
TTITLE17=Achtel Bassline (Blues Session)
TTITLE18=Riff-Bassline im Achtelgroove (Charles Calmese)
TTITLE19=Riff-Bassline im Achtelgroove (Gerry Jemmott)
TTITLE20=Achtel+Riff-Bassline (Phil Upchurch)
TTITLE21=Riff-Bassline (Gerry Jemmott, "The Thrill is gone"))
TTITLE22=Achtel+Riff-Bassline (Blues Session)
TTITLE23=Sechzehntel-Riffbassline (Cream, "Politician")
TTITLE24=Sechzehntel-Riffbassline (Cream, "Crossroads")
TTITLE25=Sechzehntel-Riffbassline (Larry Taylor)
TTITLE26=Sechzehntel-Riffbassline (Blues Session)
TTITLE27=Sechzehntel-Groove (Johnny B. Gayden)
TTITLE28=Sechzehntel-Groove (Larry Taylor)
TTITLE29=Sechzehntel-Groove (Steve Thompson))
TTITLE30=Sechzehntel-Groove (Blues Session)
TTITLE31=Sechzehntel-Slap (Johnny B. Gayden)
TTITLE32=12/8 Groove (Larry Taylor)
TTITLE33=12/8 Groove (Steve Thompson)
TTITLE34=12/8 Groove (Andrew Palmer)
TTITLE35=12/8 Groove (Carl Radle)
TTITLE36=12/8 Groove (Blues Session)
TTITLE37=Shuffle Groove (Klaus Voorman)
TTITLE38=Shuffle Groove (Johnny B. Gayden)
TTITLE39=Shuffle Groove (Larry Taylor)
TTITLE40=Shuffle Groove (Donald "Duck" Dunn)
TTITLE41=Shuffle Groove (Blues Session)
TTITLE42=Walking Bass (Grundlagen)
TTITLE43=Walking Bass (Variation)
TTITLE44=Walking Bass ("Drops")
TTITLE45=Walking Bass (Walter Page)
TTITLE46=Walking Bass (Willie Dixon)
TTITLE47=Walking Bass (Roscoe Beck)
TTITLE48=Walking Bass (Blues Session)
TTITLE49=3/4-Takt Bassline (Colin Hodkinson)
TTITLE50=10taktiger Blues (Richard Cousins)
TTITLE51=11taktiger Blues (George Washington)
TTITLE52=14taktiger Blues (Johnny B. Gayden)
TTITLE53=16taktiger Blues (Tommy Shannon)
TTITLE54=16taktiger Blues (Andy Pyle, 1)
TTITLE55=16taktiger Blues (Andy Pyle, 2)
TTITLE56=20taktiger Blues (Buddy Guy)
TTITLE57=Bass-Rhythmusgitarre (Noel Redding)
TTITLE58=Slide-Technik 1
TTITLE59=Slide-Technik 2
TTITLE60=Vibrato-Technik
TTITLE61=Hammer-Ons
TTITLE62=Pull-Offs
EXTD=
EXTT0=
EXTT1=
EXTT2=
EXTT3=
EXTT4=
EXTT5=
EXTT6=
EXTT7=
EXTT8=
EXTT9=
EXTT10=
EXTT11=
EXTT12=
EXTT13=
EXTT14=
EXTT15=
EXTT16=
EXTT17=
EXTT18=
EXTT19=
EXTT20=
EXTT21=
EXTT22=
EXTT23=
EXTT24=
EXTT25=
EXTT26=
EXTT27=
EXTT28=
EXTT29=
EXTT30=
EXTT31=
EXTT32=
EXTT33=
EXTT34=
EXTT35=
EXTT36=
EXTT37=
EXTT38=
EXTT39=
EXTT40=
EXTT41=
EXTT42=
EXTT43=
EXTT44=
EXTT45=
EXTT46=
EXTT47=
EXTT48=
EXTT49=
EXTT50=
EXTT51=
EXTT52=
EXTT53=
EXTT54=
EXTT55=
EXTT56=
EXTT57=
EXTT58=
EXTT59=
EXTT60=
EXTT61=
EXTT62=
PLAYORDER=
